<svg width="17" height="17" viewBox="0 0 17 17" fill="none" xmlns="http://www.w3.org/2000/svg">
<path d="M6.75879 7.04476C6.75879 7.47803 6.88168 7.54222 7.16023 7.6385L7.57807 7.78293V6.41891H7.33228C7.02096 6.41891 6.75879 6.69974 6.75879 7.04476Z" fill="#075500"/>
<path d="M8.80713 10.8325H9.05291C9.37243 10.8325 9.62641 10.5517 9.62641 10.2067C9.62641 9.7734 9.50351 9.70921 9.22496 9.61293L8.80713 9.46851V10.8325Z" fill="#075500"/>
<path d="M14.4029 3.39399L12.7234 5.03884C12.6005 5.15919 12.4448 5.21536 12.2892 5.21536C12.1335 5.21536 11.9778 5.15919 11.8549 5.03884C11.6173 4.80615 11.6173 4.42102 11.8549 4.18833L13.5345 2.54349C12.0925 1.33995 10.2328 0.601776 8.19277 0.601776C3.67036 0.601776 0 4.19636 0 8.62539C0 13.0544 3.67036 16.649 8.19277 16.649C12.7152 16.649 16.3855 13.0544 16.3855 8.62539C16.3855 6.62751 15.6318 4.80615 14.4029 3.39399ZM9.62651 8.48097C10.1508 8.66551 10.8554 9.0346 10.8554 10.2141C10.8554 11.217 10.0443 12.0435 9.05301 12.0435H8.80723V12.244C8.80723 12.573 8.52868 12.8458 8.19277 12.8458C7.85687 12.8458 7.57831 12.573 7.57831 12.244V12.0435H7.51277C6.42313 12.0435 5.53012 11.1448 5.53012 10.0375C5.53012 9.70056 5.80867 9.42775 6.14458 9.42775C6.48048 9.42775 6.75904 9.70056 6.75904 10.0295C6.75904 10.4708 7.09494 10.8319 7.51277 10.8319H7.57831V9.05064L6.75904 8.76982C6.2347 8.58527 5.53012 8.21619 5.53012 7.03672C5.53012 6.03376 6.3412 5.20733 7.33253 5.20733H7.57831V5.01476C7.57831 4.6858 7.85687 4.41299 8.19277 4.41299C8.52868 4.41299 8.80723 4.6858 8.80723 5.01476V5.21536H8.87277C9.96241 5.21536 10.8554 6.114 10.8554 7.22126C10.8554 7.55023 10.5769 7.82303 10.241 7.82303C9.90506 7.82303 9.62651 7.55023 9.62651 7.22126C9.62651 6.77996 9.2906 6.4189 8.87277 6.4189H8.80723V8.20014L9.62651 8.48097Z" fill="#075500"/>
<path d="M16.951 0.369086C16.8855 0.224661 16.7708 0.104307 16.6151 0.040118C16.5414 0.0160472 16.4676 0 16.3857 0H13.1086C12.7727 0 12.4941 0.272803 12.4941 0.601771C12.4941 0.930739 12.7727 1.20354 13.1086 1.20354H14.9028L13.5346 2.54349C13.8459 2.80827 14.1327 3.08909 14.4031 3.39399L15.7712 2.05405V3.81122C15.7712 4.14019 16.0498 4.41299 16.3857 4.41299C16.7216 4.41299 17.0002 4.14019 17.0002 3.81122V0.601771C17.0002 0.521535 16.9838 0.449322 16.951 0.369086Z" fill="#075500"/>
</svg>
