<svg width="16" height="15" viewBox="0 0 16 15" fill="none" xmlns="http://www.w3.org/2000/svg">
<path fill-rule="evenodd" clip-rule="evenodd" d="M3.96369 0.00541852C2.73254 0.124248 1.50887 0.851881 0.810368 1.88039C0.469774 2.38197 0.289321 2.77423 0.11035 3.40224L0.0148156 3.73747L0.00430654 7.32746C-0.00722524 11.2812 -0.0117039 11.1828 0.211667 11.8733C0.438988 12.5758 0.802609 13.1637 1.33593 13.6907C2.04328 14.3896 2.80575 14.7764 3.83981 14.9609C4.09848 15.0071 4.63271 15.0139 7.70182 15.0102C11.1072 15.0061 11.2791 15.0029 11.6163 14.9367C12.5748 14.7487 13.3291 14.3537 13.9967 13.6903C14.6368 13.0541 15.0598 12.2528 15.2555 11.3055C15.3144 11.0203 15.3191 10.7351 15.3191 7.50624C15.3191 4.04102 15.3186 4.0124 15.2407 3.61361C15.004 2.40222 14.2864 1.33651 13.2731 0.691404C12.6451 0.291671 12.1372 0.10959 11.3984 0.0193127C11.0591 -0.0221264 10.4615 0.0154278 7.70182 0.0192834C5.84877 0.0218886 4.11886 -0.00958708 3.96369 0.00541852ZM6.97603 3.92668L6.03867 3.94588L5.90544 4.04606C5.68119 4.21463 5.58114 4.53756 5.67622 4.78595C5.73652 4.94351 5.92247 5.10743 6.0963 5.1563C6.22318 5.19197 6.77755 5.19715 8.79784 5.18141L11.3398 5.16162L11.4734 5.06116C11.8407 4.78512 11.806 4.26114 11.4043 4.01535L11.234 3.91115L9.57371 3.90931C8.66055 3.9083 7.49161 3.91612 6.97603 3.92668ZM3.82263 3.98315C3.75746 4.03158 3.75125 4.08323 3.74103 4.66209C3.72607 5.50841 3.68594 5.45704 4.36124 5.45634C4.64689 5.45603 4.9044 5.44099 4.93349 5.42293C4.97683 5.39601 4.98836 5.27068 4.99732 4.73038C5.00448 4.29851 4.99492 4.04613 4.96964 3.99962C4.93335 3.93282 4.89946 3.92859 4.41209 3.92963C4.00538 3.9305 3.87793 3.94206 3.82263 3.98315ZM3.80285 6.88313C3.7338 6.95114 3.73069 6.98702 3.74113 7.59808C3.75118 8.18785 3.75781 8.24551 3.82055 8.29063C3.872 8.32766 4.0131 8.33989 4.38815 8.33989C4.82692 8.33989 4.89435 8.33221 4.94566 8.27636C4.99556 8.22207 5.00402 8.11942 5.00402 7.56967C5.00402 6.9907 4.99757 6.92078 4.93952 6.86902C4.88592 6.82123 4.79081 6.81154 4.37528 6.81154C3.9176 6.81154 3.86939 6.81758 3.80285 6.88313ZM5.99738 6.9899C5.76854 7.10203 5.65626 7.29081 5.65707 7.56216C5.65763 7.75199 5.67128 7.79586 5.76604 7.91195C5.8256 7.98493 5.93736 8.07934 6.01438 8.12179L6.15441 8.1989L8.6584 8.20307C10.9047 8.20685 11.1766 8.2014 11.3007 8.15034C11.5538 8.04617 11.68 7.88395 11.7209 7.61C11.7499 7.41628 11.6449 7.20015 11.4442 7.04006L11.31 6.93311L8.73009 6.92408C6.15025 6.91508 6.15015 6.91508 5.99738 6.9899ZM4.14207 9.6337C3.86294 9.70634 3.5927 10.0721 3.59376 10.3759C3.59422 10.5149 3.7393 10.8036 3.86901 10.9235C4.00234 11.0468 4.27107 11.1209 4.46002 11.0863C5.18592 10.9535 5.33192 10.0004 4.67574 9.67834C4.48566 9.58504 4.36716 9.57514 4.14207 9.6337ZM6.04802 9.90429C5.80564 9.97574 5.61231 10.2976 5.64917 10.5684C5.67375 10.7488 5.82888 10.9694 5.99089 11.0543C6.10734 11.1153 6.24871 11.1187 8.68869 11.1181L11.2636 11.1176L11.402 11.04C11.6092 10.9239 11.7135 10.7089 11.6967 10.4331C11.6814 10.1817 11.6103 10.0646 11.4014 9.94695L11.2636 9.86938L8.70689 9.87178C7.30068 9.87313 6.1042 9.88776 6.04802 9.90429Z" fill="black"/>
</svg>
