<svg width="53" height="55" viewBox="0 0 53 55" fill="none" xmlns="http://www.w3.org/2000/svg">
<path d="M47.125 23L49 25L45.25 29L49 41L47.125 51L35.875 47L30.25 51H22.75L17.125 47L5.875 51L4 41L7.75 29L4 25L5.875 23L4 13L5.875 5L19 13H34L47.125 5L49 13L47.125 23Z" stroke="black" stroke-width="5.41065"/>
<path d="M34 13L32.125 21L30.25 37H22.75L20.875 21L19 13" stroke="black" stroke-width="5.41065"/>
<path d="M22.75 37L17.125 47" stroke="black" stroke-width="5.41065"/>
<path d="M30.25 37L35.875 47" stroke="black" stroke-width="5.41065"/>
<path d="M26.5 45V51" stroke="black" stroke-width="5.41065"/>
<path d="M7.75 29L20.875 21" stroke="black" stroke-width="5.41065"/>
<path d="M32.125 21L45.25 29" stroke="black" stroke-width="5.41065"/>
<path d="M22.75 37L13.375 33" stroke="black" stroke-width="5.41065"/>
<path d="M30.1637 36.9079L39.5387 32.9079" stroke="black" stroke-width="5.41065"/>
</svg>
