<svg width="15" height="17" viewBox="0 0 15 17" fill="none" xmlns="http://www.w3.org/2000/svg">
<path fill-rule="evenodd" clip-rule="evenodd" d="M7.25995 1.71734C7.25995 1.10504 7.74798 0.608643 8.34995 0.608643H13.4366C14.0386 0.608643 14.5266 1.10504 14.5266 1.71734V15.0217C14.5266 15.634 14.0386 16.1304 13.4366 16.1304H8.34995C7.74798 16.1304 7.25995 15.634 7.25995 15.0217C7.25995 14.4094 7.74798 13.913 8.34995 13.913H12.3466V2.82603H8.34995C7.74798 2.82603 7.25995 2.32963 7.25995 1.71734Z" fill="#003169"/>
<path fill-rule="evenodd" clip-rule="evenodd" d="M5.20467 4.80057C5.63035 4.36758 6.32046 4.36758 6.74614 4.80057L9.31528 7.41384C9.57121 7.67408 9.67323 8.0316 9.62149 8.36939C9.67323 8.70724 9.57121 9.06476 9.31528 9.32501L6.74614 11.9383C6.32046 12.3713 5.63035 12.3713 5.20467 11.9383C4.77899 11.5053 4.77899 10.8033 5.20467 10.3704L6.08183 9.47808H1.80997C1.208 9.47808 0.719971 8.98176 0.719971 8.36939C0.719971 7.75709 1.208 7.26069 1.80997 7.26069H6.08183L5.20467 6.36849C4.77899 5.93558 4.77899 5.23355 5.20467 4.80057Z" fill="#003169"/>
</svg>
