<svg width="50" height="45" viewBox="0 0 50 45" fill="none" xmlns="http://www.w3.org/2000/svg">
<path d="M32.674 0H17.326C3.32021 0 0 2.98178 0 15.56V29.3435C0 41.9217 3.32021 44.9034 17.326 44.9034H32.674C46.6798 44.9034 50 41.9217 50 29.3435V15.56C50 2.98178 46.647 0 32.674 0ZM40.3644 32.032H36.7348C35.3598 32.032 34.9364 31.0526 32.463 28.8018C30.3147 26.9314 29.3631 26.683 28.8335 26.683C28.0851 26.683 27.8726 26.8725 27.8726 27.7944V30.7397C27.8726 31.5296 27.596 32.0039 25.268 32.0039C21.4181 32.0039 17.1463 29.9132 14.1511 26.0179C9.63407 20.3098 8.39818 16.0342 8.39818 15.1502C8.39818 14.6745 8.60911 14.2297 9.62626 14.2297H13.2636C14.1839 14.2297 14.5339 14.61 14.8917 15.494C16.6901 20.1568 19.6853 24.2415 20.9212 24.2415C21.3775 24.2415 21.5884 24.0521 21.5884 23.0067V18.1909C21.4493 15.9697 20.1478 15.7789 20.1478 14.9903C20.1478 14.61 20.4978 14.2297 21.0587 14.2297H26.7789C27.5523 14.2297 27.8366 14.61 27.8366 15.4281V21.9248C27.8366 22.6264 28.1866 22.8748 28.3976 22.8748C28.8538 22.8748 29.2444 22.6264 30.0897 21.8659C32.7021 19.2349 34.5739 15.1783 34.5739 15.1783C34.8177 14.7026 35.2411 14.2578 36.1614 14.2578H39.7988C40.8894 14.2578 41.1331 14.7615 40.8894 15.4631C40.4331 17.3631 35.9817 23.0053 35.9817 23.0053C35.5989 23.575 35.452 23.8233 35.9817 24.459C36.3723 24.9347 37.6426 25.9211 38.4879 26.8051C40.0425 28.3907 41.2378 29.7209 41.5565 30.6414C41.9143 31.5549 41.3862 32.0306 40.3597 32.0306L40.3644 32.032Z" fill="black"/>
</svg>
