<svg width="32" height="32" viewBox="0 0 32 32" fill="none" xmlns="http://www.w3.org/2000/svg">
<path d="M17.1279 14.2407H14.8779L13.7529 15.4845L14.8779 16.7313H17.1279L18.2529 15.4845L17.1279 14.2407Z" fill="#DC444A"/>
<path d="M17.2408 16.9811H14.7689L13.4189 15.4842L14.7689 13.9873H17.2408L18.5908 15.4842L17.2408 16.9811ZM14.9908 16.4811H17.0189L17.9189 15.4842L17.0189 14.4873H14.9908L14.0908 15.4842L14.9908 16.4811Z" fill="#0A0408"/>
<path d="M16.0029 28.1062L19.2061 24.653L17.1936 16.728H14.8154L12.7998 24.653L16.0029 28.1062Z" fill="white"/>
<path d="M16.003 28.4752L12.5249 24.7252L14.6218 16.4814H17.3874L19.4843 24.7252L16.003 28.4752ZM13.0749 24.5814L16.003 27.7377L18.9312 24.5814L16.9968 16.9752H15.0093L13.0749 24.5814Z" fill="#0A0408"/>
<path d="M16.003 26.3592L18.2655 23.9217L16.8437 18.3311H15.1655L13.7437 23.9217L16.003 26.3592Z" fill="#DC444A"/>
<path d="M10.7749 7.50938C10.7749 8.89596 11.3257 10.2258 12.3062 11.2062C13.2866 12.1867 14.6164 12.7375 16.003 12.7375C17.3896 12.7375 18.7194 12.1867 19.6999 11.2062C20.6803 10.2258 21.2312 8.89596 21.2312 7.50938C21.2312 6.82281 21.0959 6.14296 20.8332 5.50866C20.5704 4.87435 20.1853 4.29801 19.6999 3.81253C19.2144 3.32706 18.638 2.94196 18.0037 2.67922C17.3694 2.41648 16.6896 2.28125 16.003 2.28125C15.3165 2.28125 14.6366 2.41648 14.0023 2.67922C13.368 2.94196 12.7917 3.32706 12.3062 3.81253C11.8207 4.29801 11.4356 4.87435 11.1729 5.50866C10.9101 6.14296 10.7749 6.82281 10.7749 7.50938Z" fill="#EBB866"/>
<path d="M16.003 12.9844C12.9843 12.9844 10.5249 10.5281 10.5249 7.50625C10.5249 4.48438 12.9843 2.03125 16.003 2.03125C19.0218 2.03125 21.4812 4.4875 21.4812 7.50938C21.4812 10.5312 19.0249 12.9844 16.003 12.9844ZM16.003 2.53125C13.2593 2.53125 11.0249 4.7625 11.0249 7.50938C11.0249 10.2563 13.2562 12.4875 16.003 12.4875C18.7468 12.4875 20.9812 10.2563 20.9812 7.50938C20.9812 4.7625 18.7468 2.53125 16.003 2.53125Z" fill="#0A0408"/>
<path d="M27.5096 29.6877H4.49707V20.1752C4.49707 18.2627 8.12832 15.6689 10.0408 15.6689L16.0002 24.2096L21.9596 15.6689C23.8721 15.6689 27.5033 18.2596 27.5033 20.1752V29.6877H27.5096Z" fill="white"/>
<path d="M27.7596 29.9377H4.24707V20.1752C4.24707 18.8189 5.75332 17.5064 6.4002 17.0064C7.64707 16.0408 9.07832 15.4189 10.0439 15.4189H10.1752L16.0064 23.7721L21.8377 15.4189H21.9689C22.9346 15.4189 24.3658 16.0408 25.6127 17.0064C26.2596 17.5064 27.7658 18.8158 27.7658 20.1752V29.9377H27.7596ZM4.74707 29.4377H27.2596V20.1752C27.2596 19.3877 26.5283 18.3502 25.3033 17.4033C24.1939 16.5471 22.9533 15.9783 22.0939 15.9252L16.0033 24.6502L9.91582 15.9252C9.05645 15.9783 7.81582 16.5471 6.70645 17.4033C5.48145 18.3502 4.7502 19.3877 4.7502 20.1752V29.4377H4.74707Z" fill="#0A0408"/>
<path d="M13.7873 28.0092H6.5498V22.0248C6.5498 20.8217 7.5248 19.1904 8.73105 19.1904H10.1467L13.7904 24.5654V28.0092H13.7873ZM17.9561 28.0092H25.1967V22.0248C25.1967 20.8217 24.2217 19.1904 23.0154 19.1904H21.5998L17.9561 24.5623V28.0092Z" fill="#55B7A8"/>
<path d="M16.2529 29.0751H15.7529V28.6001H16.2529V29.0751ZM16.2529 28.1001H15.7529V27.6001H16.2529V28.1001ZM16.2529 27.1001H15.7529V26.6001H16.2529V27.1001ZM16.2529 26.1001H15.7529V25.6001H16.2529V26.1001ZM16.2529 25.1001H15.7529V24.6001H16.2529V25.1001ZM16.2529 24.1001H15.7529V23.6001H16.2529V24.1001Z" fill="#0A0408"/>
</svg>
